<svg xmlns="http://www.w3.org/2000/svg" width="17" height="13" viewBox="0 0 17 13" fill="none">
    <path
        d="M14.3916 1.07839C13.2894 0.570565 12.1262 0.208326 10.9311 0.000740408C10.9202 -0.00108887 10.9091 0.000491016 10.8992 0.00526288C10.8893 0.0100347 10.8812 0.0177642 10.8758 0.0273884C10.726 0.293869 10.5603 0.642426 10.4444 0.915302C9.15628 0.719344 7.84603 0.719344 6.55786 0.915302C6.42922 0.611071 6.28306 0.3146 6.12012 0.0273884C6.11478 0.0177642 6.1066 0.0100347 6.09671 0.00526288C6.08682 0.000491016 6.07569 -0.00108887 6.06487 0.000740408C4.86957 0.207529 3.70614 0.569943 2.60434 1.07839C2.59486 1.08192 2.58695 1.08872 2.58203 1.09757C0.378426 4.40087 -0.226131 7.62315 0.0703037 10.8049C0.0724287 10.8206 0.0798661 10.8337 0.092616 10.8444C1.37607 11.7975 2.81128 12.5256 4.33726 12.9975C4.34803 13.0009 4.35961 13.0008 4.37031 12.9972C4.38101 12.9935 4.39028 12.9866 4.39676 12.9773C4.72471 12.5296 5.01442 12.0574 5.26587 11.5607C5.2711 11.5504 5.27289 11.5388 5.27098 11.5275C5.26906 11.5161 5.26354 11.5057 5.25525 11.4978L5.23612 11.4861C4.77857 11.3091 4.33527 11.097 3.91014 10.8518C3.89827 10.8451 3.88945 10.834 3.88549 10.8209C3.88153 10.8078 3.88275 10.7937 3.88889 10.7815L3.90483 10.7612C3.99478 10.6937 4.08262 10.6244 4.16832 10.5534C4.17583 10.5473 4.18484 10.5434 4.19439 10.5421C4.20393 10.5408 4.21365 10.5421 4.22251 10.5459C7.00517 11.8208 10.0173 11.8208 12.766 10.5459C12.7751 10.5417 12.7852 10.5401 12.7952 10.5415C12.8052 10.5428 12.8146 10.5469 12.8223 10.5534C12.908 10.6244 12.9958 10.6937 13.0858 10.7612C13.0933 10.7664 13.0993 10.7733 13.1034 10.7815C13.1074 10.7896 13.1093 10.7986 13.1089 10.8077C13.1084 10.8168 13.1057 10.8256 13.1009 10.8333C13.0961 10.8411 13.0895 10.8474 13.0815 10.8518C12.6582 11.1009 12.2142 11.3128 11.7545 11.485C11.7472 11.4876 11.7405 11.4919 11.735 11.4974C11.7295 11.5029 11.7253 11.5096 11.7226 11.517C11.72 11.5241 11.719 11.5316 11.7195 11.5392C11.7201 11.5467 11.7222 11.554 11.7258 11.5607C11.9808 12.0563 12.273 12.5296 12.5939 12.9773C12.6003 12.9866 12.6096 12.9935 12.6203 12.9972C12.631 13.0008 12.6426 13.0009 12.6534 12.9975C14.1824 12.5282 15.6201 11.8 16.9044 10.8444C16.9108 10.8398 16.9161 10.834 16.9199 10.8271C16.9238 10.8203 16.9261 10.8127 16.9267 10.8049C17.2816 7.12643 16.3328 3.9308 14.4128 1.09864C14.4112 1.09381 14.4084 1.08944 14.4047 1.08592C14.401 1.08239 14.3965 1.07981 14.3916 1.07839ZM5.68131 8.86708C4.843 8.86708 4.15345 8.09535 4.15345 7.14881C4.15345 6.20228 4.83025 5.42948 5.68131 5.42948C6.53874 5.42948 7.22192 6.20761 7.20917 7.14881C7.20917 8.09535 6.53236 8.86708 5.68131 8.86708ZM11.3295 8.86708C10.4923 8.86708 9.80164 8.09535 9.80164 7.14881C9.80164 6.20228 10.4784 5.42948 11.3295 5.42948C12.1869 5.42948 12.8712 6.20761 12.8574 7.14881C12.8574 8.09535 12.1869 8.86708 11.3295 8.86708Z"
        fill="white" />
</svg>