<svg width="533" height="92" viewBox="0 0 533 92" fill="none" xmlns="http://www.w3.org/2000/svg">
<mask id="path-1-outside-1_2_1032" maskUnits="userSpaceOnUse" x="-2" y="-2" width="536" height="95" fill="black">
<rect fill="white" x="-2" y="-2" width="536" height="95"/>
<path d="M49.5 2.4375C56.9583 2.4375 63.3333 5.08333 68.625 10.375C73.9583 15.6667 76.625 22.0417 76.625 29.5C76.625 36.9583 73.9583 43.3333 68.625 48.625C63.3333 53.9167 56.9583 56.5625 49.5 56.5625H23.75V92H8.125V29.875H23.75V41H49.5C52.7083 41 55.4375 39.875 57.6875 37.625C59.9375 35.375 61.0625 32.6667 61.0625 29.5C61.0625 26.3333 59.9375 23.625 57.6875 21.375C55.4375 19.125 52.7083 18 49.5 18H8.125V17.9375H0.4375L8.125 2.4375H49.5ZM112.625 17.125L147.438 92H131.875L104.812 33.8125L77.75 92H62.1875L97.0625 17.125L104.812 0.375L112.625 17.125ZM212.438 92L192.375 56.5625H169.5V92H153.875V29.875H169.5V41H195.25C198.458 41 201.188 39.875 203.438 37.625C205.688 35.375 206.812 32.6667 206.812 29.5C206.812 26.3333 205.688 23.625 203.438 21.375C201.188 19.125 198.458 18 195.25 18H153.875V17.9375H146.188L153.875 2.4375H195.25C202.708 2.4375 209.083 5.08333 214.375 10.375C219.708 15.6667 222.375 22.0417 222.375 29.5C222.375 34.875 220.917 39.7917 218 44.25C215.083 48.6667 211.25 51.9583 206.5 54.125L228 92H212.438ZM288.812 76.4375V92H251.625H236.062H236V76.4375H236.062V17.9375H228.312L236 2.375L236.062 2.4375H251.625V76.4375H288.812ZM342.75 17.125L377.562 92H362L334.938 33.8125L307.875 92H292.312L327.188 17.125L334.938 0.375L342.75 17.125ZM425.25 2.375H440.875V2.4375L399 92H383.312L406.75 42.25V42.1875L425.25 2.375ZM388.25 2.375L393.375 13.4375L406.75 42.1875H391.188L379.938 18V17.9375L372.688 2.4375V2.375H388.25ZM448.5 2.4375H464.125V92H448.5V17.9375H440.812L448.5 2.4375ZM532.938 2.4375V18H513.25V92H497.688V18H478V17.9375H470.312L478 2.4375H532.938Z"/>
</mask>
<path d="M49.5 2.4375C56.9583 2.4375 63.3333 5.08333 68.625 10.375C73.9583 15.6667 76.625 22.0417 76.625 29.5C76.625 36.9583 73.9583 43.3333 68.625 48.625C63.3333 53.9167 56.9583 56.5625 49.5 56.5625H23.75V92H8.125V29.875H23.75V41H49.5C52.7083 41 55.4375 39.875 57.6875 37.625C59.9375 35.375 61.0625 32.6667 61.0625 29.5C61.0625 26.3333 59.9375 23.625 57.6875 21.375C55.4375 19.125 52.7083 18 49.5 18H8.125V17.9375H0.4375L8.125 2.4375H49.5ZM112.625 17.125L147.438 92H131.875L104.812 33.8125L77.75 92H62.1875L97.0625 17.125L104.812 0.375L112.625 17.125ZM212.438 92L192.375 56.5625H169.5V92H153.875V29.875H169.5V41H195.25C198.458 41 201.188 39.875 203.438 37.625C205.688 35.375 206.812 32.6667 206.812 29.5C206.812 26.3333 205.688 23.625 203.438 21.375C201.188 19.125 198.458 18 195.25 18H153.875V17.9375H146.188L153.875 2.4375H195.25C202.708 2.4375 209.083 5.08333 214.375 10.375C219.708 15.6667 222.375 22.0417 222.375 29.5C222.375 34.875 220.917 39.7917 218 44.25C215.083 48.6667 211.25 51.9583 206.5 54.125L228 92H212.438ZM288.812 76.4375V92H251.625H236.062H236V76.4375H236.062V17.9375H228.312L236 2.375L236.062 2.4375H251.625V76.4375H288.812ZM342.75 17.125L377.562 92H362L334.938 33.8125L307.875 92H292.312L327.188 17.125L334.938 0.375L342.75 17.125ZM425.25 2.375H440.875V2.4375L399 92H383.312L406.75 42.25V42.1875L425.25 2.375ZM388.25 2.375L393.375 13.4375L406.75 42.1875H391.188L379.938 18V17.9375L372.688 2.4375V2.375H388.25ZM448.5 2.4375H464.125V92H448.5V17.9375H440.812L448.5 2.4375ZM532.938 2.4375V18H513.25V92H497.688V18H478V17.9375H470.312L478 2.4375H532.938Z" fill="white"/>
<path d="M68.625 10.375L67.9179 11.0821L67.9207 11.0849L68.625 10.375ZM68.625 48.625L67.9207 47.9151L67.9179 47.9179L68.625 48.625ZM23.75 56.5625V55.5625H22.75V56.5625H23.75ZM23.75 92V93H24.75V92H23.75ZM8.125 92H7.125V93H8.125V92ZM8.125 29.875V28.875H7.125V29.875H8.125ZM23.75 29.875H24.75V28.875H23.75V29.875ZM23.75 41H22.75V42H23.75V41ZM8.125 18H7.125V19H8.125V18ZM8.125 17.9375H9.125V16.9375H8.125V17.9375ZM0.4375 17.9375L-0.458368 17.4932L-1.1747 18.9375H0.4375V17.9375ZM8.125 2.4375V1.4375H7.50473L7.22913 1.99318L8.125 2.4375ZM49.5 3.4375C56.6921 3.4375 62.813 5.97726 67.9179 11.0821L69.3321 9.66789C63.8536 4.1894 57.2246 1.4375 49.5 1.4375V3.4375ZM67.9207 11.0849C73.0663 16.1903 75.625 22.3104 75.625 29.5H77.625C77.625 21.7729 74.8503 15.143 69.3293 9.66513L67.9207 11.0849ZM75.625 29.5C75.625 36.6896 73.0663 42.8097 67.9207 47.9151L69.3293 49.3349C74.8503 43.857 77.625 37.2271 77.625 29.5H75.625ZM67.9179 47.9179C62.813 53.0227 56.6921 55.5625 49.5 55.5625V57.5625C57.2246 57.5625 63.8536 54.8106 69.3321 49.3321L67.9179 47.9179ZM49.5 55.5625H23.75V57.5625H49.5V55.5625ZM22.75 56.5625V92H24.75V56.5625H22.75ZM23.75 91H8.125V93H23.75V91ZM9.125 92V29.875H7.125V92H9.125ZM8.125 30.875H23.75V28.875H8.125V30.875ZM22.75 29.875V41H24.75V29.875H22.75ZM23.75 42H49.5V40H23.75V42ZM49.5 42C52.9711 42 55.9553 40.7714 58.3946 38.3321L56.9804 36.9179C54.9197 38.9786 52.4456 40 49.5 40V42ZM58.3946 38.3321C60.8311 35.8956 62.0625 32.9333 62.0625 29.5H60.0625C60.0625 32.4 59.0439 34.8544 56.9804 36.9179L58.3946 38.3321ZM62.0625 29.5C62.0625 26.0667 60.8311 23.1044 58.3946 20.6679L56.9804 22.0821C59.0439 24.1456 60.0625 26.6 60.0625 29.5H62.0625ZM58.3946 20.6679C55.9553 18.2286 52.9711 17 49.5 17V19C52.4456 19 54.9197 20.0214 56.9804 22.0821L58.3946 20.6679ZM49.5 17H8.125V19H49.5V17ZM9.125 18V17.9375H7.125V18H9.125ZM8.125 16.9375H0.4375V18.9375H8.125V16.9375ZM1.33337 18.3818L9.02087 2.88182L7.22913 1.99318L-0.458368 17.4932L1.33337 18.3818ZM8.125 3.4375H49.5V1.4375H8.125V3.4375ZM112.625 17.125L113.532 16.7034L113.531 16.7023L112.625 17.125ZM147.438 92V93H149.005L148.344 91.5784L147.438 92ZM131.875 92L130.968 92.4217L131.237 93H131.875V92ZM104.812 33.8125L105.719 33.3908L104.812 31.4412L103.906 33.3908L104.812 33.8125ZM77.75 92V93H78.3878L78.6567 92.4217L77.75 92ZM62.1875 92L61.281 91.5778L60.6186 93H62.1875V92ZM97.0625 17.125L97.969 17.5472L97.9701 17.5449L97.0625 17.125ZM104.812 0.375L105.719 -0.0477004L104.809 -1.99855L103.905 -0.0449171L104.812 0.375ZM111.718 17.5466L146.531 92.4216L148.344 91.5784L113.532 16.7034L111.718 17.5466ZM147.438 91H131.875V93H147.438V91ZM132.782 91.5783L105.719 33.3908L103.906 34.2342L130.968 92.4217L132.782 91.5783ZM103.906 33.3908L76.8433 91.5783L78.6567 92.4217L105.719 34.2342L103.906 33.3908ZM77.75 91H62.1875V93H77.75V91ZM63.094 92.4222L97.969 17.5472L96.156 16.7028L61.281 91.5778L63.094 92.4222ZM97.9701 17.5449L105.72 0.794917L103.905 -0.0449171L96.1549 16.7051L97.9701 17.5449ZM103.906 0.7977L111.719 17.5477L113.531 16.7023L105.719 -0.0477004L103.906 0.7977ZM212.438 92L211.567 92.4927L211.855 93H212.438V92ZM192.375 56.5625L193.245 56.0698L192.958 55.5625H192.375V56.5625ZM169.5 56.5625V55.5625H168.5V56.5625H169.5ZM169.5 92V93H170.5V92H169.5ZM153.875 92H152.875V93H153.875V92ZM153.875 29.875V28.875H152.875V29.875H153.875ZM169.5 29.875H170.5V28.875H169.5V29.875ZM169.5 41H168.5V42H169.5V41ZM153.875 18H152.875V19H153.875V18ZM153.875 17.9375H154.875V16.9375H153.875V17.9375ZM146.188 17.9375L145.292 17.4932L144.575 18.9375H146.188V17.9375ZM153.875 2.4375V1.4375H153.255L152.979 1.99318L153.875 2.4375ZM214.375 10.375L213.668 11.0821L213.671 11.0849L214.375 10.375ZM218 44.25L218.834 44.8011L218.837 44.7975L218 44.25ZM206.5 54.125L206.085 53.2152L205.091 53.6686L205.63 54.6187L206.5 54.125ZM228 92V93H229.718L228.87 91.5063L228 92ZM213.308 91.5073L193.245 56.0698L191.505 57.0552L211.567 92.4927L213.308 91.5073ZM192.375 55.5625H169.5V57.5625H192.375V55.5625ZM168.5 56.5625V92H170.5V56.5625H168.5ZM169.5 91H153.875V93H169.5V91ZM154.875 92V29.875H152.875V92H154.875ZM153.875 30.875H169.5V28.875H153.875V30.875ZM168.5 29.875V41H170.5V29.875H168.5ZM169.5 42H195.25V40H169.5V42ZM195.25 42C198.721 42 201.705 40.7714 204.145 38.3321L202.73 36.9179C200.67 38.9786 198.196 40 195.25 40V42ZM204.145 38.3321C206.581 35.8956 207.812 32.9333 207.812 29.5H205.812C205.812 32.4 204.794 34.8544 202.73 36.9179L204.145 38.3321ZM207.812 29.5C207.812 26.0667 206.581 23.1044 204.145 20.6679L202.73 22.0821C204.794 24.1456 205.812 26.6 205.812 29.5H207.812ZM204.145 20.6679C201.705 18.2286 198.721 17 195.25 17V19C198.196 19 200.67 20.0214 202.73 22.0821L204.145 20.6679ZM195.25 17H153.875V19H195.25V17ZM154.875 18V17.9375H152.875V18H154.875ZM153.875 16.9375H146.188V18.9375H153.875V16.9375ZM147.083 18.3818L154.771 2.88182L152.979 1.99318L145.292 17.4932L147.083 18.3818ZM153.875 3.4375H195.25V1.4375H153.875V3.4375ZM195.25 3.4375C202.442 3.4375 208.563 5.97726 213.668 11.0821L215.082 9.66789C209.604 4.1894 202.975 1.4375 195.25 1.4375V3.4375ZM213.671 11.0849C218.816 16.1903 221.375 22.3104 221.375 29.5H223.375C223.375 21.7729 220.6 15.143 215.079 9.66513L213.671 11.0849ZM221.375 29.5C221.375 34.6824 219.972 39.4085 217.163 43.7025L218.837 44.7975C221.861 40.1749 223.375 35.0676 223.375 29.5H221.375ZM217.166 43.6989C214.351 47.9613 210.662 51.1275 206.085 53.2152L206.915 55.0348C211.838 52.7892 215.816 49.372 218.834 44.8011L217.166 43.6989ZM205.63 54.6187L227.13 92.4937L228.87 91.5063L207.37 53.6313L205.63 54.6187ZM228 91H212.438V93H228V91ZM288.812 76.4375H289.812V75.4375H288.812V76.4375ZM288.812 92V93H289.812V92H288.812ZM236 92H235V93H236V92ZM236 76.4375V75.4375H235V76.4375H236ZM236.062 76.4375V77.4375H237.062V76.4375H236.062ZM236.062 17.9375H237.062V16.9375H236.062V17.9375ZM228.312 17.9375L227.416 17.4946L226.703 18.9375H228.312V17.9375ZM236 2.375L236.707 1.66789L235.721 0.681822L235.103 1.93211L236 2.375ZM236.062 2.4375L235.355 3.14461L235.648 3.4375H236.062V2.4375ZM251.625 2.4375H252.625V1.4375H251.625V2.4375ZM251.625 76.4375H250.625V77.4375H251.625V76.4375ZM287.812 76.4375V92H289.812V76.4375H287.812ZM288.812 91H251.625V93H288.812V91ZM251.625 91H236.062V93H251.625V91ZM236.062 91H236V93H236.062V91ZM237 92V76.4375H235V92H237ZM236 77.4375H236.062V75.4375H236V77.4375ZM237.062 76.4375V17.9375H235.062V76.4375H237.062ZM236.062 16.9375H228.312V18.9375H236.062V16.9375ZM229.209 18.3804L236.897 2.81789L235.103 1.93211L227.416 17.4946L229.209 18.3804ZM235.293 3.08211L235.355 3.14461L236.77 1.73039L236.707 1.66789L235.293 3.08211ZM236.062 3.4375H251.625V1.4375H236.062V3.4375ZM250.625 2.4375V76.4375H252.625V2.4375H250.625ZM251.625 77.4375H288.812V75.4375H251.625V77.4375ZM342.75 17.125L343.657 16.7034L343.656 16.7023L342.75 17.125ZM377.562 92V93H379.13L378.469 91.5784L377.562 92ZM362 92L361.093 92.4217L361.362 93H362V92ZM334.938 33.8125L335.844 33.3908L334.938 31.4412L334.031 33.3908L334.938 33.8125ZM307.875 92V93H308.513L308.782 92.4217L307.875 92ZM292.312 92L291.406 91.5778L290.744 93H292.312V92ZM327.188 17.125L328.094 17.5472L328.095 17.5449L327.188 17.125ZM334.938 0.375L335.844 -0.0477004L334.934 -1.99855L334.03 -0.0449171L334.938 0.375ZM341.843 17.5466L376.656 92.4216L378.469 91.5784L343.657 16.7034L341.843 17.5466ZM377.562 91H362V93H377.562V91ZM362.907 91.5783L335.844 33.3908L334.031 34.2342L361.093 92.4217L362.907 91.5783ZM334.031 33.3908L306.968 91.5783L308.782 92.4217L335.844 34.2342L334.031 33.3908ZM307.875 91H292.312V93H307.875V91ZM293.219 92.4222L328.094 17.5472L326.281 16.7028L291.406 91.5778L293.219 92.4222ZM328.095 17.5449L335.845 0.794917L334.03 -0.0449171L326.28 16.7051L328.095 17.5449ZM334.031 0.7977L341.844 17.5477L343.656 16.7023L335.844 -0.0477004L334.031 0.7977ZM425.25 2.375V1.375H424.612L424.343 1.9536L425.25 2.375ZM440.875 2.375H441.875V1.375H440.875V2.375ZM440.875 2.4375L441.781 2.86104L441.875 2.65973V2.4375H440.875ZM399 92V93H399.636L399.906 92.4235L399 92ZM383.312 92L382.408 91.5738L381.736 93H383.312V92ZM406.75 42.25L407.655 42.6762L407.75 42.4738V42.25H406.75ZM406.75 42.1875L405.843 41.7661L405.75 41.9665V42.1875H406.75ZM388.25 2.375L389.157 1.95464L388.889 1.375H388.25V2.375ZM393.375 13.4375L392.468 13.8579L392.468 13.8593L393.375 13.4375ZM406.75 42.1875V43.1875H408.318L407.657 41.7657L406.75 42.1875ZM391.188 42.1875L390.281 42.6092L390.55 43.1875H391.188V42.1875ZM379.938 18H378.938V18.2212L379.031 18.4217L379.938 18ZM379.938 17.9375H380.938V17.7152L380.843 17.5138L379.938 17.9375ZM372.688 2.4375H371.688V2.65981L371.782 2.86119L372.688 2.4375ZM372.688 2.375V1.375H371.688V2.375H372.688ZM425.25 3.375H440.875V1.375H425.25V3.375ZM439.875 2.375V2.4375H441.875V2.375H439.875ZM439.969 2.01396L398.094 91.5765L399.906 92.4235L441.781 2.86104L439.969 2.01396ZM399 91H383.312V93H399V91ZM384.217 92.4262L407.655 42.6762L405.845 41.8238L382.408 91.5738L384.217 92.4262ZM407.75 42.25V42.1875H405.75V42.25H407.75ZM407.657 42.6089L426.157 2.7964L424.343 1.9536L405.843 41.7661L407.657 42.6089ZM387.343 2.79536L392.468 13.8579L394.282 13.0171L389.157 1.95464L387.343 2.79536ZM392.468 13.8593L405.843 42.6093L407.657 41.7657L394.282 13.0157L392.468 13.8593ZM406.75 41.1875H391.188V43.1875H406.75V41.1875ZM392.094 41.7658L380.844 17.5783L379.031 18.4217L390.281 42.6092L392.094 41.7658ZM380.938 18V17.9375H378.938V18H380.938ZM380.843 17.5138L373.593 2.01381L371.782 2.86119L379.032 18.3612L380.843 17.5138ZM373.688 2.4375V2.375H371.688V2.4375H373.688ZM372.688 3.375H388.25V1.375H372.688V3.375ZM448.5 2.4375V1.4375H447.88L447.604 1.99318L448.5 2.4375ZM464.125 2.4375H465.125V1.4375H464.125V2.4375ZM464.125 92V93H465.125V92H464.125ZM448.5 92H447.5V93H448.5V92ZM448.5 17.9375H449.5V16.9375H448.5V17.9375ZM440.812 17.9375L439.917 17.4932L439.2 18.9375H440.812V17.9375ZM448.5 3.4375H464.125V1.4375H448.5V3.4375ZM463.125 2.4375V92H465.125V2.4375H463.125ZM464.125 91H448.5V93H464.125V91ZM449.5 92V17.9375H447.5V92H449.5ZM448.5 16.9375H440.812V18.9375H448.5V16.9375ZM441.708 18.3818L449.396 2.88182L447.604 1.99318L439.917 17.4932L441.708 18.3818ZM532.938 2.4375H533.938V1.4375H532.938V2.4375ZM532.938 18V19H533.938V18H532.938ZM513.25 18V17H512.25V18H513.25ZM513.25 92V93H514.25V92H513.25ZM497.688 92H496.688V93H497.688V92ZM497.688 18H498.688V17H497.688V18ZM478 18H477V19H478V18ZM478 17.9375H479V16.9375H478V17.9375ZM470.312 17.9375L469.417 17.4932L468.7 18.9375H470.312V17.9375ZM478 2.4375V1.4375H477.38L477.104 1.99318L478 2.4375ZM531.938 2.4375V18H533.938V2.4375H531.938ZM532.938 17H513.25V19H532.938V17ZM512.25 18V92H514.25V18H512.25ZM513.25 91H497.688V93H513.25V91ZM498.688 92V18H496.688V92H498.688ZM497.688 17H478V19H497.688V17ZM479 18V17.9375H477V18H479ZM478 16.9375H470.312V18.9375H478V16.9375ZM471.208 18.3818L478.896 2.88182L477.104 1.99318L469.417 17.4932L471.208 18.3818ZM478 3.4375H532.938V1.4375H478V3.4375Z" fill="black" mask="url(#path-1-outside-1_2_1032)"/>
</svg>
