<svg xmlns="http://www.w3.org/2000/svg" width="19" height="19" viewBox="0 0 19 19" fill="none">
    <path opacity="0.8095"
        d="M19 9.5C19 12.0196 17.9991 14.4359 16.2175 16.2175C14.4359 17.9991 12.0196 19 9.5 19C6.98044 19 4.56408 17.9991 2.78249 16.2175C1.00089 14.4359 0 12.0196 0 9.5C0 6.98044 1.00089 4.56408 2.78249 2.78249C4.56408 1.00089 6.98044 0 9.5 0C12.0196 0 14.4359 1.00089 16.2175 2.78249C17.9991 4.56408 19 6.98044 19 9.5ZM9.84081 7.01337C8.91615 7.39813 7.06919 8.19375 4.29994 9.40025C3.85106 9.57837 3.61554 9.75333 3.59337 9.92512C3.55775 10.2137 3.91994 10.3277 4.41275 10.4832L4.62056 10.5486C5.10506 10.7065 5.75819 10.8906 6.09662 10.8977C6.40537 10.9056 6.74896 10.7789 7.12738 10.5177C9.71533 8.77127 11.0509 7.88856 11.134 7.86956C11.1934 7.85531 11.2765 7.83869 11.3311 7.88856C11.3857 7.93844 11.381 8.03106 11.3751 8.056C11.3394 8.20919 9.918 9.52969 9.18294 10.2137C8.95375 10.4274 8.79106 10.5782 8.75781 10.6127C8.68462 10.6875 8.61019 10.7612 8.53456 10.8336C8.08331 11.2682 7.74606 11.5936 8.55237 12.1256C8.94069 12.3821 9.25181 12.5922 9.56175 12.8036C9.899 13.034 10.2362 13.2632 10.6732 13.5506C10.7841 13.6234 10.891 13.6974 10.9939 13.7726C11.3869 14.0529 11.742 14.3046 12.1778 14.2642C12.4319 14.2405 12.6944 14.003 12.8274 13.2905C13.1421 11.6078 13.7608 7.96337 13.9033 6.46119C13.9122 6.33632 13.907 6.21083 13.8878 6.08712C13.8763 5.98738 13.828 5.89551 13.7524 5.82944C13.6442 5.75514 13.5155 5.71653 13.3843 5.719C13.0281 5.72494 12.4782 5.91612 9.84081 7.01337Z"
        fill="white" />
</svg>